<svg xmlns="http://www.w3.org/2000/svg" xmlns:xlink="http://www.w3.org/1999/xlink" width="1080" zoomAndPan="magnify" viewBox="0 0 810 809.999993" height="1080" preserveAspectRatio="xMidYMid meet" version="1.0"><defs>
<clipPath id="d441a4dc8a"><path d="M 219.863281 271.046875 L 574.480469 271.046875 L 574.480469 319.207031 L 219.863281 319.207031 Z M 219.863281 271.046875 " clip-rule="nonzero"/></clipPath>
<clipPath id="0fa09eca4c"><path d="M 243.941406 271.046875 L 550.34375 271.046875 C 556.730469 271.046875 562.855469 273.585938 567.371094 278.101562 C 571.886719 282.617188 574.425781 288.742188 574.425781 295.128906 C 574.425781 301.515625 571.886719 307.640625 567.371094 312.15625 C 562.855469 316.671875 556.730469 319.207031 550.34375 319.207031 L 243.941406 319.207031 C 237.554688 319.207031 231.429688 316.671875 226.914062 312.15625 C 222.398438 307.640625 219.863281 301.515625 219.863281 295.128906 C 219.863281 288.742188 222.398438 282.617188 226.914062 278.101562 C 231.429688 273.585938 237.554688 271.046875 243.941406 271.046875 Z M 243.941406 271.046875 " clip-rule="nonzero"/></clipPath>
<clipPath id="c985506deb"><path d="M 219.863281 356.839844 L 574.480469 356.839844 L 574.480469 405 L 219.863281 405 Z M 219.863281 356.839844 " clip-rule="nonzero"/></clipPath>
<clipPath id="b74379b958"><path d="M 243.941406 356.839844 L 550.34375 356.839844 C 556.730469 356.839844 562.855469 359.378906 567.371094 363.894531 C 571.886719 368.410156 574.425781 374.535156 574.425781 380.921875 C 574.425781 387.304688 571.886719 393.429688 567.371094 397.945312 C 562.855469 402.464844 556.730469 405 550.34375 405 L 243.941406 405 C 237.554688 405 231.429688 402.464844 226.914062 397.945312 C 222.398438 393.429688 219.863281 387.304688 219.863281 380.921875 C 219.863281 374.535156 222.398438 368.410156 226.914062 363.894531 C 231.429688 359.378906 237.554688 356.839844 243.941406 356.839844 Z M 243.941406 356.839844 " clip-rule="nonzero"/></clipPath><clipPath id="42428d0616"><path d="M 219.863281 442.5 L 574.480469 442.5 L 574.480469 490.660156 L 219.863281 490.660156 Z M 219.863281 442.5 " clip-rule="nonzero"/></clipPath><clipPath id="c70266d4e5"><path d="M 243.941406 442.5 L 550.34375 442.5 C 556.730469 442.5 562.855469 445.035156 567.371094 449.554688 C 571.886719 454.070312 574.425781 460.195312 574.425781 466.578125 C 574.425781 472.964844 571.886719 479.089844 567.371094 483.605469 C 562.855469 488.125 556.730469 490.660156 550.34375 490.660156 L 243.941406 490.660156 C 237.554688 490.660156 231.429688 488.125 226.914062 483.605469 C 222.398438 479.089844 219.863281 472.964844 219.863281 466.578125 C 219.863281 460.195312 222.398438 454.070312 226.914062 449.554688 C 231.429688 445.035156 237.554688 442.5 243.941406 442.5 Z M 243.941406 442.5 " clip-rule="nonzero"/></clipPath></defs><g clip-path="url(#d441a4dc8a)"><g clip-path="url(#0fa09eca4c)"><path fill="#000000" d="M 219.863281 271.046875 L 574.480469 271.046875 L 574.480469 319.207031 L 219.863281 319.207031 Z M 219.863281 271.046875 " fill-opacity="1" fill-rule="nonzero"/></g></g><g clip-path="url(#c985506deb)"><g clip-path="url(#b74379b958)"><path fill="#000000" d="M 219.863281 356.839844 L 574.480469 356.839844 L 574.480469 405 L 219.863281 405 Z M 219.863281 356.839844 " fill-opacity="1" fill-rule="nonzero"/></g></g><g clip-path="url(#42428d0616)"><g clip-path="url(#c70266d4e5)"><path fill="#000000" d="M 219.863281 442.5 L 574.480469 442.5 L 574.480469 490.660156 L 219.863281 490.660156 Z M 219.863281 442.5 " fill-opacity="1" fill-rule="nonzero"/></g>
</g></svg>